<mxfile host="app.diagrams.net" modified="2021-01-05T09:12:27.159Z" agent="5.0 (Windows NT 6.1; Win64; x64) AppleWebKit/537.36 (KHTML, like Gecko) Chrome/87.0.4280.88 Safari/537.36" etag="khb4x8ahIqyXxt1q4Zrj" version="14.1.8" type="github">
  <diagram id="zeYRLyJRFwDcffSaTdFo" name="Page-1">
    <mxGraphModel dx="942" dy="656" grid="1" gridSize="10" guides="1" tooltips="1" connect="1" arrows="1" fold="1" page="1" pageScale="1" pageWidth="827" pageHeight="1169" math="0" shadow="0">
      <root>
        <mxCell id="0" />
        <mxCell id="1" parent="0" />
        <mxCell id="f7om5fPVRZZPZT-CGFrL-2" value="&lt;font style=&quot;font-size: 18px&quot;&gt;C2下发流程&lt;/font&gt;" style="text;html=1;align=center;verticalAlign=middle;resizable=0;points=[];autosize=1;" parent="1" vertex="1">
          <mxGeometry x="340" y="210" width="110" height="20" as="geometry" />
        </mxCell>
        <mxCell id="f7om5fPVRZZPZT-CGFrL-3" value="频道下发" style="text;html=1;align=center;verticalAlign=middle;resizable=0;points=[];autosize=1;" parent="1" vertex="1">
          <mxGeometry x="220" y="250" width="60" height="20" as="geometry" />
        </mxCell>
        <mxCell id="f7om5fPVRZZPZT-CGFrL-4" value="&lt;font style=&quot;font-size: 9px&quot;&gt;下发前提:&lt;br&gt;epg_category&lt;br&gt;&lt;/font&gt;1.两个图标必填&lt;br&gt;2.injectionstatus=0&lt;br&gt;3.status!=1 || (status=1 &amp;amp;&amp;amp; onlinetime&amp;lt; updatetime)" style="rounded=1;whiteSpace=wrap;html=1;" parent="1" vertex="1">
          <mxGeometry x="210" y="300" width="120" height="120" as="geometry" />
        </mxCell>
        <mxCell id="f7om5fPVRZZPZT-CGFrL-6" value="" style="endArrow=classic;html=1;" parent="1" edge="1">
          <mxGeometry width="50" height="50" relative="1" as="geometry">
            <mxPoint x="269.65999999999997" y="420" as="sourcePoint" />
            <mxPoint x="270" y="460" as="targetPoint" />
          </mxGeometry>
        </mxCell>
        <mxCell id="f7om5fPVRZZPZT-CGFrL-7" value="&lt;span style=&quot;font-size: 9px&quot;&gt;epg_category.injectionstatus!=2&lt;br&gt;写cms_send_event&lt;br&gt;&lt;br&gt;&lt;/span&gt;" style="rounded=1;whiteSpace=wrap;html=1;" parent="1" vertex="1">
          <mxGeometry x="180" y="460" width="180" height="60" as="geometry" />
        </mxCell>
        <mxCell id="f7om5fPVRZZPZT-CGFrL-10" value="定时任务sendjob轮询&lt;span style=&quot;font-size: 9px&quot;&gt;cms_send_event,处理status=1的事件&lt;/span&gt;" style="rounded=1;whiteSpace=wrap;html=1;" parent="1" vertex="1">
          <mxGeometry x="359.9999999999999" y="710" width="120" height="60" as="geometry" />
        </mxCell>
        <mxCell id="f7om5fPVRZZPZT-CGFrL-11" value="" style="endArrow=classic;html=1;" parent="1" target="f7om5fPVRZZPZT-CGFrL-12" edge="1">
          <mxGeometry width="50" height="50" relative="1" as="geometry">
            <mxPoint x="419.65999999999997" y="770" as="sourcePoint" />
            <mxPoint x="419.65999999999997" y="810" as="targetPoint" />
          </mxGeometry>
        </mxCell>
        <mxCell id="f7om5fPVRZZPZT-CGFrL-12" value="生成cms_send_task,生成请求工单,发送soap消息" style="rounded=1;whiteSpace=wrap;html=1;" parent="1" vertex="1">
          <mxGeometry x="359.9999999999999" y="810" width="120" height="60" as="geometry" />
        </mxCell>
        <mxCell id="f7om5fPVRZZPZT-CGFrL-15" value="节目单下发" style="text;html=1;align=center;verticalAlign=middle;resizable=0;points=[];autosize=1;" parent="1" vertex="1">
          <mxGeometry x="500" y="250" width="80" height="20" as="geometry" />
        </mxCell>
        <mxCell id="f7om5fPVRZZPZT-CGFrL-18" value="" style="edgeStyle=orthogonalEdgeStyle;rounded=0;orthogonalLoop=1;jettySize=auto;html=1;" parent="1" source="f7om5fPVRZZPZT-CGFrL-16" target="f7om5fPVRZZPZT-CGFrL-17" edge="1">
          <mxGeometry relative="1" as="geometry" />
        </mxCell>
        <mxCell id="f7om5fPVRZZPZT-CGFrL-16" value="1.对应频道下发成功&lt;br&gt;2.节目单不为正在下发&lt;br&gt;3.编单内容要有且要编满24h" style="whiteSpace=wrap;html=1;" parent="1" vertex="1">
          <mxGeometry x="480" y="320" width="140" height="70" as="geometry" />
        </mxCell>
        <mxCell id="f7om5fPVRZZPZT-CGFrL-20" value="" style="edgeStyle=orthogonalEdgeStyle;rounded=0;orthogonalLoop=1;jettySize=auto;html=1;" parent="1" source="f7om5fPVRZZPZT-CGFrL-17" target="f7om5fPVRZZPZT-CGFrL-19" edge="1">
          <mxGeometry relative="1" as="geometry" />
        </mxCell>
        <mxCell id="f7om5fPVRZZPZT-CGFrL-17" value="打印并准备编单内容和插播内容" style="whiteSpace=wrap;html=1;" parent="1" vertex="1">
          <mxGeometry x="490" y="450" width="120" height="60" as="geometry" />
        </mxCell>
        <mxCell id="f7om5fPVRZZPZT-CGFrL-19" value="1.编单内容和插播内容base64混淆,写入epg_category_out.name&lt;br&gt;2.根据混淆后字符串长度分页&lt;br&gt;3.epg_category_out是否存在,不存在写一条&lt;br&gt;4.写cms_send_event,itemname取值epg_category_out.name&lt;br&gt;取节目单一条或两条,编单内容和插播内容分页数量之和" style="whiteSpace=wrap;html=1;" parent="1" vertex="1">
          <mxGeometry x="401.88" y="570" width="296.25" height="110" as="geometry" />
        </mxCell>
        <mxCell id="f7om5fPVRZZPZT-CGFrL-24" value="" style="endArrow=classic;html=1;entryX=0.75;entryY=0;entryDx=0;entryDy=0;exitX=0.5;exitY=1;exitDx=0;exitDy=0;" parent="1" source="f7om5fPVRZZPZT-CGFrL-19" target="f7om5fPVRZZPZT-CGFrL-10" edge="1">
          <mxGeometry width="50" height="50" relative="1" as="geometry">
            <mxPoint x="430" y="680" as="sourcePoint" />
            <mxPoint x="480" y="630" as="targetPoint" />
          </mxGeometry>
        </mxCell>
        <mxCell id="f7om5fPVRZZPZT-CGFrL-25" value="" style="endArrow=classic;html=1;entryX=0.25;entryY=0;entryDx=0;entryDy=0;exitX=0.5;exitY=1;exitDx=0;exitDy=0;" parent="1" source="f7om5fPVRZZPZT-CGFrL-7" target="f7om5fPVRZZPZT-CGFrL-10" edge="1">
          <mxGeometry width="50" height="50" relative="1" as="geometry">
            <mxPoint x="340" y="570" as="sourcePoint" />
            <mxPoint x="239.9999999999999" y="710" as="targetPoint" />
          </mxGeometry>
        </mxCell>
      </root>
    </mxGraphModel>
  </diagram>
</mxfile>
